<svg id="Layer_1" data-name="Layer 1" xmlns="http://www.w3.org/2000/svg" viewBox="0 0 640 384"><path d="M622.34,153.2,343.4,67.5a79.88,79.88,0,0,0-46.79,0L17.66,153.2c-23.54,7.23-23.54,38.36,0,45.59l48.63,14.94a78.8,78.8,0,0,0-17.88,46.9C38.78,266.15,32,276.11,32,288c0,10.78,5.68,19.85,13.86,25.65L20.33,428.53A16,16,0,0,0,35.94,448H92.05a16,16,0,0,0,15.62-19.47L82.14,313.65C90.32,307.85,96,298.78,96,288c0-11.57-6.47-21.25-15.66-26.87A47.17,47.17,0,0,1,101,224.41L296.6,284.5a80,80,0,0,0,46.79,0l279-85.7c23.55-7.24,23.55-38.36,0-45.6ZM352.79,315.09a111.94,111.94,0,0,1-65.59,0l-145-44.55L128,384c0,35.35,86,64,192,64s192-28.65,192-64L497.82,270.53Z" transform="translate(0 -64)"/></svg>